<?xml version="1.0" encoding="UTF-8" standalone="no"?>
<!-- Created with Inkscape (http://www.inkscape.org/) -->

<svg
   width="50mm"
   height="50mm"
   viewBox="0 0 50 50.000001"
   version="1.1"
   id="svg5"
   xmlns="http://www.w3.org/2000/svg"
   xmlns:svg="http://www.w3.org/2000/svg">
  <defs
     id="defs2" />
  <g
     id="layer1"
     transform="translate(2.6845593,-51.267145)">
    <rect
       style="fill:#ffffff;fill-opacity:1;stroke:#ffffff;stroke-width:6.5823;stroke-linecap:round;stroke-linejoin:round;stroke-miterlimit:4;stroke-dasharray:none;stroke-opacity:1"
       id="rect7589"
       width="43.41774"
       height="43.417702"
       x="0.60659009"
       y="54.558296" />
    <ellipse
       style="fill:#4a4458;fill-opacity:1;stroke:#4a4458;stroke-width:0;stroke-linejoin:round;stroke-miterlimit:4;stroke-dasharray:none"
       id="path846-7"
       cx="26.721214"
       cy="69.822884"
       rx="20.594227"
       ry="18.026571" />
    <text
       xml:space="preserve"
       style="font-size:4.9389px;line-height:1.25;font-family:'CMU Serif';-inkscape-font-specification:'CMU Serif, Normal';font-variant-ligatures:none;white-space:pre;inline-size:10.7407;stroke-width:0.264583"
       x="23.038034"
       y="73.454826"
       id="text2092"
       transform="matrix(0.85961923,0,0,0.85961923,-0.3768605,7.196921)" />
    <text
       xml:space="preserve"
       style="font-style:normal;font-variant:normal;font-weight:normal;font-stretch:normal;font-size:39.4231px;line-height:1.25;font-family:'Abyssinica SIL';-inkscape-font-specification:'Abyssinica SIL, Normal';font-variant-ligatures:none;font-variant-caps:normal;font-variant-numeric:normal;font-variant-east-asian:normal;fill:#ffffff;fill-opacity:1;stroke-width:1.60034;stroke-miterlimit:4;stroke-dasharray:none"
       x="14.27514"
       y="90.259407"
       id="text7900"
       transform="scale(1.1232102,0.8903053)"><tspan
         style="font-style:normal;font-variant:normal;font-weight:normal;font-stretch:normal;font-size:39.4231px;font-family:'Abyssinica SIL';-inkscape-font-specification:'Abyssinica SIL, Normal';font-variant-ligatures:none;font-variant-caps:normal;font-variant-numeric:normal;font-variant-east-asian:normal;fill:#ffffff;fill-opacity:1;stroke-width:1.60034;stroke-miterlimit:4;stroke-dasharray:none"
         x="14.27514"
         y="90.259407"
         id="tspan7902">?</tspan></text>
    <ellipse
       style="fill:#55389a;fill-opacity:1;stroke:#4a4458;stroke-width:0;stroke-linejoin:round;stroke-miterlimit:4;stroke-dasharray:none;stroke-opacity:1"
       id="path846-8"
       cx="17.275255"
       cy="55.333225"
       rx="13.186239"
       ry="0"
       transform="scale(-1,1)" />
    <g
       id="g7517"
       transform="matrix(0.85961923,0,0,0.85961923,-1.1753192,10.282259)">
      <circle
         style="fill:#ffffff;fill-opacity:1;stroke:#ffffff;stroke-width:2;stroke-linecap:round;stroke-linejoin:round;stroke-miterlimit:4;stroke-dasharray:none;stroke-opacity:1"
         id="path3285"
         cx="14.244291"
         cy="89.289436"
         r="14.999999" />
      <path
         style="fill:#4a4458;fill-opacity:1;stroke:#4a4458;stroke-width:0;stroke-miterlimit:4;stroke-dasharray:none;stroke-opacity:1"
         d="M 13.284486,104.25785 C 11.132557,104.08145 9.4563666,103.62119 7.6169766,102.70161 2.3704044,100.07865 -0.97737051,94.512597 -0.74427049,88.800087 -0.48411806,82.424655 3.6151644,76.978921 9.6329313,75.014404 c 1.5669227,-0.51153 2.9708327,-0.725982 4.7459327,-0.724965 2.404559,0.0013 4.489545,0.490788 6.714127,1.576005 1.484408,0.72414 2.582565,1.481571 3.715507,2.562699 2.458853,2.346387 3.919103,5.332559 4.365975,8.928311 0.09337,0.751284 0.09301,2.768919 -6e-4,3.535432 -0.790365,6.469817 -5.031165,11.440194 -11.008282,12.902094 -1.59345,0.38973 -3.534787,0.57423 -4.881067,0.46387 z m -2.27748,-2.5292 c 0,-0.0192 -0.1209,-0.17154 -0.268665,-0.33881 -0.64125,-0.7259 -0.7977367,-1.413205 -0.49206,-2.161108 0.08591,-0.21018 0.188446,-0.467078 0.227873,-0.570899 0.05767,-0.151921 0.129067,-0.207751 0.365588,-0.28599 0.366629,-0.12129 0.674474,-0.42117 0.761017,-0.741316 0.03983,-0.14733 0.0516,-0.434669 0.02955,-0.722235 -0.0219,-0.286049 -0.01275,-0.513009 0.0228,-0.565946 0.0327,-0.04861 0.224265,-0.154681 0.425738,-0.235711 0.570292,-0.22932 0.617947,-0.326733 0.641212,-1.310469 0.0015,-0.06753 0.128655,-0.160019 0.372151,-0.270899 0.591441,-0.26934 0.779999,-0.508693 1.028647,-1.305787 0.179827,-0.576455 0.174847,-0.780236 -0.02955,-1.210586 -0.196275,-0.413247 -0.368671,-0.572269 -0.992002,-0.915009 -0.24948,-0.137161 -0.558143,-0.356718 -0.68592,-0.487876 -0.189091,-0.194069 -0.268524,-0.236039 -0.426705,-0.225419 -0.271725,0.0183 -0.427853,-0.129721 -0.677715,-0.642234 l -0.213263,-0.437418 -0.502815,-0.251041 c -0.8663997,-0.432558 -1.4784744,-0.454221 -1.9634541,-0.06951 -0.1200902,0.09528 -0.2462402,0.17322 -0.2803203,0.17322 -0.03405,0 -0.1678801,-0.20982 -0.2973301,-0.46629 C 7.7799614,88.148812 7.703934,88.109821 7.111224,88.2049 c -0.40119,0.06435 -0.400635,0.06411 -0.7702425,0.344409 -0.250515,0.18999 -0.2745,0.195811 -0.73944,0.179371 l -0.480525,-0.0171 -0.032325,-0.280171 c -0.02625,-0.22761 -0.078975,-0.32751 -0.2809874,-0.532548 -0.21039,-0.21354 -0.2486625,-0.2895 -0.2486625,-0.493695 0,-0.20046 -0.022575,-0.24735 -0.133095,-0.27687 -0.2799901,-0.07473 -0.4064025,-0.03468 -0.6401401,0.20286 -0.1298849,0.132 -0.2685899,0.22992 -0.3082199,0.21762 -0.1047075,-0.03246 -0.5169,-0.820029 -0.5002725,-0.955836 0.00772,-0.06336 0.1252875,-0.19953 0.261165,-0.302547 0.5706075,-0.432663 1.6880549,-0.377487 2.6232824,0.12954 l 0.2859225,0.15501 0.1752901,-0.12432 c 0.3018149,-0.21408 0.7651049,-0.760836 0.9177449,-1.083108 0.08055,-0.17007 0.2259675,-0.63102 0.32316,-1.024344 0.1905074,-0.771024 0.3317775,-1.060095 0.7493701,-1.533423 0.4055622,-0.459698 0.6424505,-0.550329 1.4384842,-0.550329 0.7748547,0 0.7819957,-0.0057 0.7819957,-0.611346 0,-0.21087 0.02302,-0.397602 0.05123,-0.41496 0.02819,-0.0174 0.366353,0.07389 0.751462,0.20274 0.385111,0.12888 0.740791,0.23433 0.790396,0.23433 0.09043,0 1.009717,-0.870498 1.009717,-0.956129 0,-0.0252 -0.07573,-0.04557 -0.168292,-0.04557 -0.211245,0 -0.286621,-0.08739 -0.60252,-0.698526 -0.301875,-0.584019 -0.571958,-0.892416 -0.781553,-0.892416 -0.08153,0 -0.26985,0.06771 -0.418477,0.15045 -0.441435,0.24576 -0.616073,0.27663 -1.6080517,0.28431 -1.1663029,0.009 -1.2631129,0.04812 -1.5516756,0.626091 -0.105105,0.21051 -0.220845,0.375272 -0.257205,0.366113 -0.036375,-0.0093 -0.15315,-0.108599 -0.2595525,-0.220979 -0.1595624,-0.16851 -0.23589,-0.2043 -0.4357874,-0.2043 -0.17955,0 -0.2583076,-0.0297 -0.3039451,-0.11466 -0.065175,-0.12132 -0.051225,-0.818493 0.0186,-0.931077 0.053475,-0.08619 1.2971775,-0.486294 1.5116324,-0.486294 0.1127103,0 0.2238685,0.06495 0.3529355,0.20622 0.223673,0.24483 0.2916004,0.25008 0.817927,0.06321 0.7094694,-0.251911 1.0858124,-0.340141 1.6159114,-0.378892 l 0.517928,-0.03786 -0.262042,-0.530313 c -0.14412,-0.291659 -0.367568,-0.636377 -0.496538,-0.76601 l -0.234495,-0.23568 -0.579112,-0.0198 -0.5791124,-0.0198 -0.283297,0.266549 c -0.2839723,0.26718 -1.1215505,0.745467 -1.3054805,0.745467 -0.053925,0 -0.2387625,-0.13257 -0.410775,-0.29463 -0.1719975,-0.16203 -0.353475,-0.29463 -0.4032674,-0.29463 -0.0498,0 -0.3799725,0.20175 -0.733725,0.448308 -2.8403475,1.979724 -4.8106349,4.795662 -5.64083987,8.061864 -0.30615737,1.204527 -0.33983237,1.479648 -0.19992747,1.633635 0.15950997,0.17556 0.26309997,0.21843 0.75368244,0.31194 0.5316356,0.10131 0.6616931,0.16461 1.1607656,0.564792 0.4970849,0.398595 0.6758924,0.469602 1.1825325,0.469602 0.4053899,0 0.4247173,0.0069 0.6768224,0.238291 0.3070949,0.281969 0.55305,0.364551 0.9352575,0.314048 0.3387599,-0.04476 0.4589325,0.03312 0.4589325,0.29742 0,0.13749 -0.061425,0.25083 -0.23157,0.427204 -0.2946601,0.30545 -0.4175325,0.551586 -0.6499201,1.301933 -0.2250375,0.726618 -0.2078549,0.842412 0.2217901,1.494651 0.6596925,1.00146 1.1330249,1.345834 1.8512624,1.346886 0.442665,6.6e-4 0.4734375,0.0294 0.423885,0.397536 -0.05385,0.400063 0.085455,0.83436 0.5847449,1.822681 l 0.4813353,0.952778 0.039226,0.608703 c 0.035625,0.553524 0.063451,0.662112 0.3069598,1.197939 0.1472548,0.324081 0.3944399,0.952042 0.5492999,1.395472 0.3002097,0.85967 0.4001097,1.00575 0.7800897,1.1407 0.2232147,0.0793 1.0260367,0.1194 1.0260367,0.0513 z m 15.11712,-4.738152 c 1.66911,-2.524077 2.497035,-5.649686 2.282685,-8.617608 -0.06555,-0.907899 -0.232245,-1.983069 -0.399631,-2.577915 l -0.09119,-0.324081 -0.527393,-0.25041 c -0.290069,-0.13773 -0.55473,-0.25044 -0.588142,-0.25044 -0.158018,0 -1.04937,0.508368 -1.298745,0.740715 -0.154057,0.14355 -0.311219,0.261 -0.34923,0.261 -0.16797,0 -1.015499,-0.485427 -1.276829,-0.731307 -0.183803,-0.17295 -0.342616,-0.27156 -0.44064,-0.27366 -0.0843,-0.0018 -0.466373,-4.44e-4 -0.849046,0.003 -0.687052,0.0063 -0.702097,0.0093 -1.199925,0.24726 -0.455992,0.21795 -0.559064,0.24378 -1.078882,0.27033 -0.9237,0.04722 -1.07124,0.23313 -1.07508,1.354749 l -0.0022,0.723132 -0.233821,0.25269 c -0.12861,0.13896 -0.257887,0.317361 -0.287303,0.39642 -0.03068,0.08238 -0.03428,0.521025 -0.0084,1.027602 0.07595,1.489442 0.384539,2.162143 1.167555,2.545143 0.305235,0.14931 0.39831,0.16536 0.959167,0.16536 0.599948,0 0.637276,-0.0078 1.094378,-0.2277 0.734842,-0.353586 1.45875,-0.357963 2.188747,-0.0132 0.505441,0.23868 0.503475,0.2355 0.530708,0.858351 0.02175,0.496458 0.04747,0.602856 0.235125,0.971754 0.11592,0.227849 0.210645,0.477152 0.210495,0.554031 -1.8e-4,0.09501 -0.151883,0.294509 -0.473513,0.622725 -0.26028,0.26562 -0.473234,0.516807 -0.473234,0.558194 0,0.0414 0.232919,0.530119 0.517604,1.086067 0.487222,0.95148 0.517935,1.033302 0.523163,1.39382 0.003,0.21066 0.0098,0.407527 0.01478,0.437499 0.01313,0.0774 0.493815,-0.545294 0.929077,-1.203507 z m -0.3135,-13.413633 c 0.219622,-0.10959 0.399299,-0.23271 0.399299,-0.27363 0,-0.04092 -0.19965,-0.27192 -0.443661,-0.513369 -0.282428,-0.279449 -0.443663,-0.485792 -0.443663,-0.567792 0,-0.126929 0.302699,-0.433911 0.427867,-0.433911 0.0351,0 0.285975,0.224251 0.557437,0.498324 0.394906,0.398703 0.493576,0.533205 0.493576,0.672804 0,0.2511 0.05596,0.360888 0.183795,0.360888 0.06157,0 0.111982,-0.0177 0.111982,-0.0393 0,-0.07263 -0.602827,-1.16469 -0.87141,-1.578591 -0.368414,-0.56776 -0.815265,-1.161982 -1.256452,-1.670839 l -0.373612,-0.430913 -0.223389,0.21729 c -0.218212,0.21225 -0.236879,0.21822 -0.804907,0.25809 -0.319844,0.0225 -0.642848,0.07386 -0.717787,0.11427 -0.242213,0.13059 -0.366015,0.411129 -0.367148,0.831953 -6e-4,0.21066 -0.0168,0.441573 -0.03607,0.513159 -0.03397,0.12624 -0.04065,0.12423 -0.22119,-0.06645 -0.208396,-0.22008 -0.66408,-0.350013 -1.114223,-0.31767 -0.23865,0.0171 -0.266197,0.03816 -0.447832,0.341541 -0.36234,0.605208 -0.362963,0.878247 -0.0037,1.512769 l 0.17829,0.314675 h 0.513585 c 0.55152,0 0.605415,-0.0207 1.026683,-0.392124 0.121312,-0.10698 0.436117,-0.302481 0.699561,-0.434418 0.263438,-0.131939 0.597766,-0.348948 0.742944,-0.48224 0.153434,-0.140881 0.284849,-0.219841 0.313867,-0.188611 0.150239,0.161761 0.478005,0.892873 0.478005,1.066227 0,0.26187 0.122235,0.532911 0.348997,0.773862 0.211171,0.2244 0.230798,0.222421 0.848902,-0.08601 z m -1.858455,-4.581143 c -0.249435,-0.23688 -0.56652,-0.519834 -0.704633,-0.628794 l -0.251122,-0.19812 0.0426,0.17454 c 0.05947,0.24354 0.405652,0.57063 0.893429,0.844068 0.227753,0.12768 0.427403,0.233669 0.443663,0.23556 0.01627,0.0018 -0.174503,-0.19038 -0.423937,-0.427254 z"
         id="path986" />
    </g>
  </g>
</svg>
