<?xml version="1.0" encoding="UTF-8" standalone="no"?>
<!-- Created with Inkscape (http://www.inkscape.org/) -->

<svg
   width="62.267719mm"
   height="62.267719mm"
   viewBox="0 0 62.267719 62.267719"
   version="1.1"
   id="svg5"
   inkscape:version="1.1.2 (0a00cf5339, 2022-02-04)"
   sodipodi:docname="information.svg"
   xmlns:inkscape="http://www.inkscape.org/namespaces/inkscape"
   xmlns:sodipodi="http://sodipodi.sourceforge.net/DTD/sodipodi-0.dtd"
   xmlns="http://www.w3.org/2000/svg"
   xmlns:svg="http://www.w3.org/2000/svg">
  <sodipodi:namedview
     id="namedview7"
     pagecolor="#505050"
     bordercolor="#eeeeee"
     borderopacity="1"
     inkscape:pageshadow="0"
     inkscape:pageopacity="0"
     inkscape:pagecheckerboard="0"
     inkscape:document-units="mm"
     showgrid="false"
     inkscape:zoom="1.9846521"
     inkscape:cx="183.65939"
     inkscape:cy="107.57553"
     inkscape:window-width="2256"
     inkscape:window-height="1423"
     inkscape:window-x="0"
     inkscape:window-y="0"
     inkscape:window-maximized="1"
     inkscape:current-layer="layer1"
     fit-margin-top="0"
     fit-margin-left="0"
     fit-margin-right="0"
     fit-margin-bottom="0" />
  <defs
     id="defs2" />
  <g
     inkscape:label="Calque 1"
     inkscape:groupmode="layer"
     id="layer1"
     transform="translate(-53.625715,-81.624548)">
    <circle
       style="fill:none;stroke:#fdfffe;stroke-width:2.26772;stroke-linecap:round;stroke-linejoin:round;stroke-miterlimit:4;stroke-dasharray:none;stroke-dashoffset:10.2047;stroke-opacity:1"
       id="path846"
       cx="84.759575"
       cy="112.75841"
       r="30" />
    <g
       aria-label="i"
       id="text2962"
       style="font-size:63.5px;line-height:1.25;font-family:'EB Garamond';-inkscape-font-specification:'EB Garamond, Normal';font-variant-ligatures:none;fill:#ffffff;stroke-width:0.264583">
      <path
         d="m 84.442074,92.21616 c -1.905,0 -3.4925,1.524 -3.4925,3.429 0,1.9685 1.524,3.556 3.4925,3.556 1.9685,0 3.4925,-1.5875 3.4925,-3.556 0,-1.905 -1.5875,-3.429 -3.4925,-3.429 z m -2.286,21.7805 v 12.319 c 0,1.5875 -0.6985,3.556 -2.413,4.064 -1.7145,0.508 -2.794,1.016 -2.794,1.651 0,0.635 0.5715,1.27 2.2225,1.27 1.397,0 4.3815,-0.381 5.6515,-0.381 1.016,0 4.191,0.381 5.588,0.381 1.651,0 2.159,-0.635 2.159,-1.27 0,-0.635 -1.016,-1.143 -2.7305,-1.651 -1.7145,-0.508 -2.413,-2.4765 -2.413,-4.064 v -19.1135 c 0,-1.27 0,-1.8415 -0.762,-1.8415 -0.635,0 -5.9055,2.0955 -6.604,2.4765 -0.8255,0.381 -1.8415,0.889 -1.8415,1.5875 0,0.6985 0.635,1.0795 1.3335,1.3335 1.524,0.5715 2.6035,2.159 2.6035,3.2385 z"
         id="path5254" />
    </g>
  </g>
</svg>
