<?xml version="1.0" encoding="UTF-8"?>
<!-- Created with Inkscape (http://www.inkscape.org/) -->
<svg width="75.592mm" height="81.049mm" version="1.1" viewBox="0 0 75.592 81.049" xmlns="http://www.w3.org/2000/svg">
 <g transform="translate(16.336 -33.97)">
  <circle transform="rotate(90)" cx="77.219" cy="-21.462" r="32.5" fill="none"/>
  <path transform="rotate(90)" d="m55.177-51.8a37.5 37.5 0 0 1 49.91 5.2457 37.5 37.5 0 0 1 0 50.185 37.5 37.5 0 0 1-49.91 5.2457" fill="none" stroke="#fefefe" stroke-dasharray="4.80000023,2.40000012" stroke-dashoffset="2.7" stroke-linecap="round" stroke-linejoin="round" stroke-width=".6"/>
  <ellipse cx="26.721" cy="72.469" rx="20.594" ry="18.027" fill="#fff" stroke-width="0"/>
  <text transform="matrix(.85962 0 0 .85962 -.37686 7.1969)" x="23.038034" y="73.454826" font-family="'CMU Serif'" font-size="4.9389px" stroke-width=".26458" style="font-variant-ligatures:none;inline-size:10.7407;line-height:1.25;white-space:pre" xml:space="preserve"/>
  <g transform="scale(1.1232 .89031)" fill="#2a282d" stroke-width="1.6003" style="font-variant-ligatures:none" aria-label="?">
   <path d="m30.272 73.52q0 1.463-0.53899 2.6564-0.53899 1.1742-1.3475 2.1944-0.78923 1.0202-1.5977 1.9635-0.78923 0.94323-1.3282 1.925-0.53899 0.98173-0.53899 2.0982 0 0.21174 0.077 0.59674t0.077 0.38499l-2.4062-0.0385q-0.34649-0.71223-0.57749-1.4822-0.21174-0.78923-0.21174-1.9442 0-1.1742 0.46199-2.2714 0.48124-1.1165 1.0972-2.1367 0.61598-1.0202 1.078-1.8865 0.48124-0.86623 0.48124-1.54 0-1.0202-0.67374-1.694-0.67373-0.67374-1.8865-0.67374-1.155 0-1.6747 0.51974-0.51974 0.51974-0.73148 1.0587h-1.4245q-0.42349-0.38499-0.69298-0.96248-0.25024-0.57749-0.25024-1.0202 0-0.76998 0.59674-1.6362 0.61599-0.88548 1.9442-1.5015 1.3282-0.63524 3.4457-0.63524 2.1367 0 3.6189 0.88548 1.4822 0.86623 2.2329 2.2522 0.76998 1.3667 0.76998 2.8874zm-3.5034 16.67q0 1.2705-0.86623 2.156t-2.1175 0.88548q-1.2705 0-2.156-0.88548t-0.88548-2.156q0-1.2512 0.88548-2.1175t2.156-0.86623q1.2512 0 2.1175 0.86623t0.86623 2.1175z"/>
  </g>
  <g>
   <ellipse transform="scale(-1,1)" cx="17.275" cy="55.333" rx="13.186" ry="0" fill="#55389a" stroke-width="0"/>
   <circle cx="11.069" cy="89.683" r="12.894" fill="#2a282d" stroke="#fff" stroke-linecap="round" stroke-linejoin="round" stroke-width="1.7192"/>
   <path d="m10.244 102.55c-1.8498-0.15164-3.2907-0.54729-4.8719-1.3378-4.5101-2.2548-7.3879-7.0394-7.1875-11.95 0.22363-5.4804 3.7475-10.162 8.9204-11.85 1.347-0.43972 2.5538-0.62407 4.0797-0.62319 2.067 0.0011 3.8593 0.42189 5.7716 1.3548 1.276 0.62248 2.22 1.2736 3.1939 2.2029 2.1137 2.017 3.3689 4.584 3.7531 7.6749 0.08026 0.64582 0.07995 2.3802-5.16e-4 3.0391-0.67941 5.5616-4.3249 9.8342-9.4629 11.091-1.3698 0.33502-3.0386 0.49362-4.1959 0.39875zm-1.9578-2.1742c0-0.0165-0.10393-0.14746-0.23095-0.29125-0.55123-0.624-0.68575-1.2148-0.42298-1.8577 0.07385-0.18068 0.16199-0.40151 0.19588-0.49076 0.049574-0.13059 0.11095-0.17859 0.31427-0.24584 0.31516-0.10426 0.57979-0.36205 0.65418-0.63725 0.034239-0.12665 0.044356-0.37365 0.025402-0.62085-0.018826-0.24589-0.01096-0.44099 0.019599-0.4865 0.028109-0.04179 0.19278-0.13297 0.36597-0.20262 0.49023-0.19713 0.5312-0.28087 0.5512-1.1265 0.00129-0.05805 0.11059-0.13756 0.31991-0.23287 0.50841-0.23153 0.6705-0.43728 0.88424-1.1225 0.15458-0.49553 0.1503-0.67071-0.0254-1.0406-0.16872-0.35524-0.31692-0.49193-0.85275-0.78656-0.21446-0.11791-0.47979-0.30664-0.58963-0.41939-0.16255-0.16683-0.23083-0.2029-0.3668-0.19378-0.23358 0.01573-0.36779-0.11151-0.58258-0.55208l-0.18332-0.37601-0.43223-0.2158c-0.74477-0.37184-1.2709-0.39046-1.6878-0.05975-0.10323 0.0819-0.21167 0.1489-0.24097 0.1489-0.02927 0-0.14431-0.18036-0.25559-0.40083-0.23366-0.46291-0.29902-0.49643-0.80852-0.4147-0.34487 0.05532-0.34439 0.05511-0.66212 0.29606-0.21535 0.16332-0.23597 0.16832-0.63564 0.15419l-0.41307-0.0147-0.027787-0.24084c-0.022565-0.19566-0.067889-0.28154-0.24154-0.45779-0.18086-0.18356-0.21376-0.24886-0.21376-0.42439 0-0.17232-0.019406-0.21263-0.11441-0.238-0.24068-0.06424-0.34935-0.02981-0.55028 0.17438-0.11165 0.11347-0.23089 0.19764-0.26495 0.18707-0.090009-0.0279-0.44434-0.70491-0.43004-0.82166 0.00664-0.05447 0.1077-0.17152 0.2245-0.26008 0.49051-0.37192 1.4511-0.3245 2.255 0.11136l0.24578 0.13325 0.15068-0.10687c0.25945-0.18403 0.6577-0.65403 0.78891-0.93106 0.069242-0.1462 0.19425-0.54244 0.27779-0.88055 0.16376-0.66279 0.2852-0.91128 0.64417-1.3182 0.34863-0.39516 0.55226-0.47307 1.2365-0.47307 0.66608 0 0.67222-0.0049 0.67222-0.52552 0-0.18127 0.019788-0.34179 0.044038-0.35671 0.024233-0.01496 0.31492 0.06352 0.64597 0.17428 0.33105 0.11079 0.6368 0.20144 0.67944 0.20144 0.077735 0 0.86797-0.7483 0.86797-0.82191 0-0.02166-0.0651-0.03917-0.14467-0.03917-0.18159 0-0.24638-0.07512-0.51794-0.60047-0.2595-0.50203-0.49167-0.76714-0.67184-0.76714-0.070085 0-0.23197 0.05821-0.35973 0.12933-0.37947 0.21126-0.52959 0.2378-1.3823 0.2444-1.0026 0.0077-1.0858 0.04136-1.3339 0.5382-0.09035 0.18096-0.18984 0.32259-0.2211 0.31472-0.031269-8e-3 -0.13165-0.09335-0.22312-0.18996-0.13716-0.14486-0.20278-0.17562-0.37461-0.17562-0.15434 0-0.22205-0.02553-0.26128-0.09856-0.056026-0.10429-0.044034-0.70359 0.015989-0.80037 0.045968-0.07409 1.1151-0.41803 1.2994-0.41803 0.096888 0 0.19244 0.05583 0.30339 0.17727 0.19227 0.21046 0.25067 0.21497 0.70311 0.05434 0.60987-0.21655 0.93339-0.29239 1.3891-0.3257l0.44522-0.032556-0.22526-0.45587c-0.12389-0.25072-0.31597-0.54704-0.42683-0.65848l-0.20158-0.2026-0.99563-0.034041-0.24353 0.22913c-0.24411 0.22967-0.96411 0.64082-1.1222 0.64082-0.046355 0-0.20524-0.11396-0.35311-0.25327-0.14785-0.13928-0.30385-0.25327-0.34666-0.25327-0.042809 0-0.32663 0.17343-0.63072 0.38538-2.4416 1.7018-4.1353 4.1224-4.849 6.9301-0.26318 1.0354-0.29213 1.2719-0.17186 1.4043 0.13712 0.15092 0.22617 0.18777 0.64788 0.26815 0.457 0.08709 0.5688 0.1415 0.99782 0.48551 0.4273 0.34264 0.58101 0.40368 1.0165 0.40368 0.34848 0 0.3651 0.0059 0.58181 0.20484 0.26398 0.24239 0.47541 0.31338 0.80397 0.26996 0.2912-0.03848 0.39451 0.02847 0.39451 0.25567 0 0.11819-0.052802 0.21562-0.19906 0.36723-0.2533 0.26257-0.35892 0.47415-0.55868 1.1192-0.19345 0.62462-0.17868 0.72415 0.19066 1.2848 0.56708 0.86087 0.97397 1.1569 1.5914 1.1578 0.38052 5.67e-4 0.40698 0.02527 0.36438 0.34173-0.04629 0.3439 0.073459 0.71723 0.50266 1.5668l0.41377 0.81903 0.033719 0.52325c0.030624 0.47582 0.054544 0.56916 0.26387 1.0298 0.12658 0.27859 0.33907 0.81839 0.47219 1.1996 0.25807 0.73899 0.34394 0.86456 0.67058 0.98057 0.19188 0.0682 0.882 0.10264 0.882 0.0441zm12.995-4.073c1.4348-2.1697 2.1465-4.8566 1.9622-7.4079-0.05635-0.78045-0.19964-1.7047-0.34353-2.216l-0.07839-0.27859-0.45336-0.21526c-0.24935-0.1184-0.47686-0.21528-0.50558-0.21528-0.13584 0-0.90206 0.437-1.1164 0.63673-0.13243 0.1234-0.26753 0.22436-0.3002 0.22436-0.14439 0-0.87294-0.41728-1.0976-0.62864-0.158-0.14867-0.29452-0.23344-0.37878-0.23524-0.07247-0.0015-0.4009-3.81e-4 -0.72986 0.0026-0.5906 0.0054-0.60354 8e-3 -1.0315 0.21255-0.39198 0.18735-0.48058 0.20956-0.92743 0.23238-0.79403 0.04059-0.92086 0.2004-0.92416 1.1646l-0.0019 0.62162-0.201 0.21722c-0.11056 0.11945-0.22168 0.27281-0.24697 0.34077-0.02637 0.07082-0.02947 0.44788-0.0072 0.88335 0.06529 1.2804 0.33056 1.8586 1.0037 2.1879 0.26239 0.12835 0.3424 0.14215 0.82452 0.14215 0.51573 0 0.54782-0.0067 0.94075-0.19574 0.63168-0.30395 1.254-0.30771 1.8815-0.01135 0.43449 0.20517 0.4328 0.20244 0.45621 0.73786 0.0187 0.42676 0.04081 0.51823 0.20212 0.83534 0.09965 0.19586 0.18107 0.41017 0.18095 0.47626-1.55e-4 0.08167-0.13056 0.25317-0.40704 0.53531-0.22374 0.22833-0.4068 0.44426-0.4068 0.47983 0 0.03559 0.20022 0.4557 0.44494 0.9336 0.41882 0.81791 0.44523 0.88825 0.44972 1.1982 0.0026 0.18109 0.0084 0.35032 0.01271 0.37608 0.01129 0.06654 0.42449-0.46874 0.79865-1.0346zm-0.26949-11.531c0.18879-0.0942 0.34324-0.20004 0.34324-0.23522 0-0.03518-0.17162-0.23375-0.38138-0.4413-0.24278-0.24022-0.38138-0.4176-0.38138-0.48808 0-0.10911 0.2602-0.373 0.3678-0.373 0.03017 0 0.24583 0.19277 0.47918 0.42837 0.33947 0.34273 0.42429 0.45835 0.42429 0.57836 0 0.21585 0.04811 0.31023 0.15799 0.31023 0.05293 0 0.09626-0.01522 0.09626-0.03378 0-0.06243-0.5182-1.0012-0.74908-1.357-0.3167-0.48806-0.70082-0.99886-1.0801-1.4363l-0.32116-0.37042-0.19203 0.18679c-0.18758 0.18245-0.20363 0.18759-0.69191 0.22186-0.27494 0.01934-0.5526 0.06349-0.61702 0.09823-0.20821 0.11226-0.31463 0.35341-0.31561 0.71516-5.16e-4 0.18109-0.01444 0.37958-0.03101 0.44112-0.0292 0.10852-0.03494 0.10679-0.19014-0.05712-0.17914-0.18918-0.57086-0.30088-0.95781-0.27308-0.20515 0.0147-0.22883 0.0328-0.38496 0.2936-0.31148 0.52025-0.31201 0.75496-0.0032 1.3004l0.15326 0.2705h0.44149c0.4741 0 0.52043-0.01779 0.88256-0.33708 0.10428-0.09196 0.3749-0.26002 0.60136-0.37343 0.22646-0.11342 0.51385-0.29996 0.63865-0.41454 0.1319-0.1211 0.24486-0.18898 0.26981-0.16213 0.12915 0.13905 0.4109 0.76753 0.4109 0.91655 0 0.22511 0.10508 0.4581 0.3 0.66523 0.18153 0.1929 0.1984 0.1912 0.72973-0.07394zm-1.5976-3.938c-0.21442-0.20363-0.48699-0.44686-0.60572-0.54052l-0.21587-0.17031 0.03662 0.15004c0.05112 0.20935 0.34871 0.49052 0.76801 0.72558 0.19578 0.10976 0.3674 0.20087 0.38138 0.20249 0.01399 0.0015-0.15001-0.16365-0.36442-0.36728z" fill="#fff" stroke-width="0"/>
  </g>
  <g fill="#fff" stroke="#fefefe" stroke-width=".26458" style="font-variant-ligatures:none" aria-label="Geo Quiz">
   <path d="m1.9835 49.608q-0.18529 0.95164-0.65454 1.7529-0.46887 0.79129-1.1929 1.4632-0.92572 0.85911-1.9396 1.2706-1.0187 0.40632-2.0265 0.38867-1.0078-0.01764-1.9502-0.45221-0.94234-0.43457-1.7151-1.2672-0.78232-0.84298-1.161-1.8007-0.37346-0.96251-0.33182-1.9445 0.041641-0.98197 0.5017-1.9383 0.46523-0.96117 1.3651-1.7963 0.46545-0.43195 0.94083-0.72874 0.47058-0.30196 0.93669-0.48426 0.46131-0.18748 0.91374-0.27044 0.45242-0.08297 0.88672-0.08173l0.1932 1.1106q0.050151 0.26148-0.081744 0.45127-0.1319 0.18978-0.43881 0.25322-0.29177 0.05901-0.55437 0.13907-0.26223 0.07009-0.52631 0.19004-0.26409 0.11995-0.53558 0.30452-0.27149 0.18458-0.58179 0.47254-0.52233 0.48475-0.77843 1.0593t-0.24888 1.1839q0.012385 0.60456 0.28402 1.2188 0.27163 0.61423 0.80438 1.1883 0.57594 0.6206 1.2077 0.94872 0.62699 0.32295 1.2596 0.36154 0.63261 0.03859 1.2405-0.19833 0.61311-0.24172 1.1613-0.75047 0.37236-0.34556 0.59478-0.68674 0.22279-0.35114 0.38207-0.73961l-1.1711-1.2619-0.84815 0.78712q-0.14998 0.13918-0.30989 0.1432-0.15954-6e-3 -0.27473-0.13007l-0.80151-0.86366 2.5755-2.3901 2.8749 3.0978z"/>
   <path d="m3.3484 41.673q0.62075-0.32026 1.2447-0.38811 0.62698-0.07736 1.1973 0.10476 0.57658 0.17888 1.0682 0.62391 0.49463 0.43552 0.85694 1.1378 0.10028 0.19438 0.14617 0.32949 0.045888 0.13511 0.040816 0.233-0.00507 0.09789-0.06414 0.16806-0.062303 0.0639-0.18144 0.12536l-3.8813 2.0024q0.55058 0.86713 1.2 1.064 0.65566 0.19366 1.3642-0.17189 0.3574-0.18439 0.57243-0.39854 0.21806-0.22365 0.36068-0.42426 0.14565-0.21011 0.26035-0.3725 0.11774-0.17189 0.27449-0.25277 0.20065-0.10352 0.39115-0.01126l0.82511 0.36823q-0.11091 0.46212-0.33324 0.84676-0.22557 0.37837-0.51827 0.68817-0.29594 0.30352-0.63697 0.53504-0.33779 0.23779-0.67639 0.41248-0.67719 0.34938-1.3798 0.434-0.69959 0.075122-1.3617-0.13108-0.65909-0.2157-1.2431-0.73214-0.58401-0.51644-1.024-1.3692-0.33967-0.65838-0.42733-1.3515-0.081392-0.69636 0.10296-1.3393t0.63809-1.1946q0.4505-0.55793 1.1841-0.93642zm0.65893 1.2003q-0.62075 0.32026-0.78749 0.85882-0.16998 0.53229 0.05663 1.2331l2.6962-1.391q-0.1391-0.26962-0.34051-0.47534-0.19514-0.20895-0.44894-0.31619-0.2538-0.10723-0.54707-0.0909-0.2965 0.01006-0.62882 0.18152z"/>
   <path d="m12.231 38.407q0.7963-0.1891 1.5088-0.08998 0.71246 0.09912 1.2917 0.46193 0.57765 0.35594 0.9914 0.96836 0.41375 0.61242 0.61426 1.4568 0.20051 0.84435 0.10791 1.5843-0.09423 0.73305-0.44855 1.3176-0.35431 0.58451-0.94614 0.99337-0.59182 0.40886-1.3881 0.59796-0.80316 0.19073-1.5225 0.09324-0.71246-0.099123-1.2917-0.46193-0.57928-0.36281-0.99989-0.9736-0.41538-0.61928-0.61589-1.4636-0.20051-0.84435-0.10628-1.5774 0.1011-0.73468 0.45704-1.3123 0.35431-0.58451 0.94614-0.99337 0.59869-0.41049 1.4019-0.60122zm1.3938 5.8693q0.81003-0.19236 1.0693-0.84132 0.25761-0.65582-0.0049-1.761-0.26083-1.0983-0.78416-1.5615-0.52496-0.46998-1.335-0.27762-0.83062 0.19725-1.0882 0.85307-0.25924 0.64896 0.0016 1.7473 0.26246 1.1052 0.78742 1.5752 0.52333 0.46312 1.354 0.26586z"/>
   <path d="m33.016 41.017q-0.11369 0.66772-0.35702 1.2561-0.23518 0.58262-0.59068 1.0732-0.34854 0.49175-0.80111 0.8799-0.45139 0.3812-0.98357 0.64844l2.0859 3.218-1.718-0.29252q-0.37559-0.06395-0.6581-0.21225-0.27555-0.14712-0.48094-0.45406l-1.1109-1.7565q-0.70192 0.0451-1.4322-0.07925-1.1616-0.19777-2.0481-0.74952-0.88539-0.55871-1.4498-1.3634-0.56439-0.80465-0.77892-1.8145-0.20758-1.0087-0.01928-2.1146 0.1883-1.1059 0.71681-1.9821 0.53666-0.88199 1.3355-1.4545t1.8181-0.79979q1.0204-0.23422 2.182-0.03644 1.1616 0.19777 2.047 0.75648 0.88658 0.55175 1.4428 1.3622 0.56439 0.80465 0.77197 1.8134 0.21572 1.0029 0.0286 2.1019zm-2.1353-0.36357q0.13501-0.79292 0.03293-1.4544-0.1009-0.66847-0.42275-1.1742-0.31371-0.51147-0.83802-0.83692-0.51617-0.33123-1.2256-0.45202-0.70946-0.1208-1.3131 0.01976-0.60247 0.1336-1.0747 0.51125-0.46411 0.37187-0.78055 0.96929-0.31525 0.59046-0.45026 1.3834-0.13619 0.79988-0.0353 1.4684 0.10208 0.66152 0.41698 1.166 0.32185 0.5057 0.84498 0.83811 0.52431 0.32546 1.2338 0.44625 0.70946 0.1208 1.305-0.01399 0.60366-0.14056 1.0678-0.51243 0.47107-0.37069 0.78632-0.96115 0.31643-0.59742 0.45262-1.3973z"/>
   <path d="m38.21 41.11-2.0843 4.1246q-0.27367 0.54156-0.18082 0.96793 0.10232 0.42326 0.5935 0.67147 0.36524 0.18457 0.76595 0.18943 0.40389-0.0014 0.83358-0.13213l2.358-4.6662 1.738 0.87829-3.2808 6.4924-1.0705-0.54097q-0.33375-0.16866-0.27546-0.51865l0.11577-0.51068q-0.58454 0.18683-1.1715 0.19064-0.57744 6.95e-4 -1.2134-0.32071-0.52896-0.2673-0.85229-0.65995-0.31703-0.38946-0.42863-0.85693-0.1116-0.46747-0.02732-0.99406 0.08428-0.52659 0.35795-1.0681l2.0843-4.1246z"/>
   <path d="m46.208 46.063-4.387 5.8025-1.5533-1.1744 4.387-5.8025zm1.4325-1.5086q-0.14893 0.19698-0.35537 0.30625-0.20645 0.10927-0.43939 0.13659-0.22731 0.03158-0.46273-0.03142-0.22978-0.05874-0.4324-0.21193-0.19135-0.14467-0.31051-0.34975-0.11352-0.20082-0.1451-0.42813-0.03158-0.22731 0.01728-0.45573 0.05449-0.22416 0.20342-0.42114 0.14893-0.19698 0.34975-0.31051 0.2107-0.1149 0.43801-0.14648 0.22731-0.03158 0.45147 0.02291 0.22979 0.05874 0.42114 0.20342 0.20261 0.15318 0.32176 0.35826 0.12478 0.20933 0.15636 0.43664 0.03721 0.23157-0.01591 0.46561-0.04886 0.22841-0.19779 0.4254z"/>
   <path d="m51.503 52.209q-0.14726 0.14206-0.33842 0.22844-0.18609 0.08148-0.35079 0.08351l-5.3655 0.63706 2.3807 2.4679-1.0562 1.0189-3.9433-4.0877 0.57888-0.55844q0.08632-0.08328 0.26244-0.16494 0.18101-0.07658 0.38108-0.10293l5.4158-0.65612-2.317-2.4018 1.0562-1.0189 3.865 4.0064z"/>
  </g>
  <circle cx="10.922" cy="89.952" r="14" fill="none" stroke="#2a282d" stroke-dashoffset="9.9779" stroke-linecap="round" stroke-linejoin="round"/>
 </g>
</svg>
