<?xml version="1.0" encoding="UTF-8" standalone="no"?>
<!-- Created with Inkscape (http://www.inkscape.org/) -->

<svg
   width="22.190538mm"
   height="20.650475mm"
   viewBox="0 0 22.190538 20.650475"
   version="1.1"
   id="svg5"
   inkscape:version="1.1.2 (0a00cf5339, 2022-02-04)"
   sodipodi:docname="hint2.svg"
   xmlns:inkscape="http://www.inkscape.org/namespaces/inkscape"
   xmlns:sodipodi="http://sodipodi.sourceforge.net/DTD/sodipodi-0.dtd"
   xmlns="http://www.w3.org/2000/svg"
   xmlns:svg="http://www.w3.org/2000/svg">
  <sodipodi:namedview
     id="namedview7"
     pagecolor="#b41818"
     bordercolor="#999999"
     borderopacity="1"
     inkscape:pageshadow="0"
     inkscape:pageopacity="0"
     inkscape:pagecheckerboard="true"
     inkscape:document-units="mm"
     showgrid="false"
     fit-margin-top="0"
     fit-margin-left="0"
     fit-margin-right="0"
     fit-margin-bottom="0"
     inkscape:zoom="5.8577254"
     inkscape:cx="18.351833"
     inkscape:cy="47.031908"
     inkscape:window-width="2256"
     inkscape:window-height="1423"
     inkscape:window-x="0"
     inkscape:window-y="0"
     inkscape:window-maximized="1"
     inkscape:current-layer="layer1" />
  <defs
     id="defs2" />
  <g
     inkscape:label="Calque 1"
     inkscape:groupmode="layer"
     id="layer1"
     transform="translate(-44.699189,-60.744412)">
    <path
       id="path7974"
       style="fill:#ffffff;stroke-width:0.0350396;fill-opacity:1"
       d="m 55.797275,64.774259 c -0.380823,1.23e-4 -0.76224,0.02723 -1.057817,0.08061 -0.611298,0.11041 -0.952776,0.216193 -1.527038,0.473873 -2.836822,1.27294 -4.031111,4.398055 -2.679423,7.011975 0.08568,0.16569 0.350749,0.594937 0.589111,0.953947 1.023945,1.5422 1.318976,2.276117 1.445907,3.598747 0.0212,0.22093 0.03894,0.507267 0.03927,0.636137 0.001,0.41158 0.118842,0.640343 0.399975,0.775663 l 0.161748,0.07752 h 2.629296 2.629297 l 0.161747,-0.07752 c 0.103853,-0.05006 0.199041,-0.133461 0.266651,-0.233061 0.09984,-0.14712 0.106912,-0.182855 0.136942,-0.700215 0.05802,-0.99958 0.206636,-1.738505 0.473357,-2.354895 0.167672,-0.3875 0.511538,-0.975629 1.026293,-1.755449 0.506115,-0.76672 0.673167,-1.074807 0.836125,-1.539957 0.55585,-1.58661 0.305687,-3.21912 -0.705383,-4.60282 -0.867752,-1.18755 -2.184158,-1.978408 -3.770313,-2.264978 -0.294433,-0.0532 -0.674926,-0.0797 -1.055749,-0.07958 z m -0.0016,0.702283 c 0.374585,-2.15e-4 0.748623,0.0261 1.019576,0.07958 2.007096,0.39617 3.497306,1.762289 3.942395,3.614249 0.111286,0.46295 0.111748,1.35711 10e-4,1.81746 -0.16205,0.67379 -0.324242,1.00541 -0.981852,2.00763 -1.144833,1.74476 -1.405225,2.441563 -1.528589,4.089672 l -0.04496,0.594279 h -2.406572 -2.406571 l -0.04393,-0.579809 c -0.07733,-1.02002 -0.218485,-1.670128 -0.505913,-2.332158 -0.203812,-0.469429 -0.403377,-0.815679 -0.985986,-1.707389 -0.699096,-1.07 -0.86651,-1.40978 -1.009241,-2.04897 -0.557496,-2.49666 1.182493,-4.912691 3.927926,-5.453931 0.273342,-0.05362 0.648091,-0.0804 1.022677,-0.08062 z" />
    <path
       style="fill:#ffffff;fill-opacity:1;stroke-width:0.0350395"
       d="m 55.636678,63.436704 c -0.206925,-0.10115 -0.202778,-0.0741 -0.204038,-1.33361 l -0.0012,-1.16579 0.111787,-0.10202 c 0.100863,-0.0921 0.128523,-0.1003 0.283048,-0.0844 0.124975,0.0129 0.193893,0.0416 0.254998,0.10646 0.08369,0.0888 0.08374,0.0895 0.08374,1.2413 v 1.15245 l -0.100866,0.10103 c -0.123293,0.1235 -0.283183,0.15513 -0.427499,0.0846 z"
       id="path7996" />
    <path
       style="fill:#ffffff;stroke-width:0.0350395;fill-opacity:1"
       d="m 60.286909,64.575664 c -0.06297,-0.0246 -0.141375,-0.0797 -0.174223,-0.12249 -0.127098,-0.1656 -0.08891,-0.25588 0.512696,-1.21191 0.314832,-0.5003 0.62044,-0.95107 0.679131,-1.0017 0.237059,-0.2045 0.619052,-0.0423 0.619052,0.26277 0,0.10255 -1.123771,1.90183 -1.256516,2.01183 -0.112712,0.0934 -0.243956,0.11462 -0.38014,0.0615 z"
       id="path7994" />
    <path
       style="fill:#ffffff;stroke-width:0.0350395;fill-opacity:1"
       d="m 51.078723,64.598864 c -0.04384,-0.006 -0.118112,-0.0471 -0.165053,-0.0904 -0.14383,-0.13261 -1.240719,-1.90593 -1.240719,-2.00584 0,-0.30522 0.382401,-0.46787 0.618381,-0.26302 0.05832,0.0506 0.363931,0.50207 0.679131,1.00321 0.620125,0.98593 0.650744,1.0627 0.490564,1.22989 -0.08771,0.0916 -0.250945,0.14542 -0.382304,0.12615 z"
       id="path7992" />
    <path
       style="fill:#ffffff;stroke-width:0.0350395;fill-opacity:1"
       d="m 63.235743,67.651994 c -0.05497,-0.0272 -0.116864,-0.0784 -0.137544,-0.11362 -0.05955,-0.10155 -0.04487,-0.32111 0.02659,-0.39761 0.05287,-0.0566 1.603864,-0.89414 2.015495,-1.08837 0.06456,-0.0305 0.177242,-0.0554 0.250401,-0.0554 0.294443,0 0.463158,0.34881 0.264919,0.5477 -0.06672,0.0669 -1.605667,0.902 -2.040512,1.10722 -0.136684,0.0645 -0.249195,0.0645 -0.379346,7e-5 z"
       id="path7990" />
    <path
       style="fill:#ffffff;stroke-width:0.0350395;fill-opacity:1"
       d="m 47.967401,67.647994 c -0.546547,-0.26642 -1.961432,-1.03584 -2.026486,-1.10201 -0.124118,-0.12624 -0.113231,-0.32512 0.02469,-0.45099 0.20015,-0.18266 0.265771,-0.16223 1.415223,0.44073 0.564695,0.29621 1.055235,0.57111 1.09009,0.61089 0.03627,0.0414 0.06337,0.12958 0.06337,0.20622 0,0.27964 -0.289498,0.43037 -0.566887,0.29516 z"
       id="path7988" />
    <path
       style="fill:#ffffff;fill-opacity:1;stroke-width:0.0350395"
       d="m 64.091633,71.875294 c -0.208647,-0.10554 -0.24722,-0.35977 -0.08044,-0.53018 l 0.106987,-0.10932 1.222608,-0.009 c 1.108665,-0.008 1.234572,-0.003 1.350983,0.0502 0.170933,0.0789 0.243407,0.26146 0.168613,0.42482 -0.10183,0.22242 -0.08793,0.22033 -1.451352,0.21901 -0.950206,-9.2e-4 -1.249664,-0.0113 -1.317397,-0.0455 z"
       id="path7986" />
    <path
       style="fill:#ffffff;stroke-width:0.0350395;fill-opacity:1"
       d="m 44.836901,71.837394 c -0.139392,-0.10704 -0.173036,-0.24031 -0.100606,-0.39851 0.09892,-0.21607 0.154191,-0.22375 1.530816,-0.21277 l 1.211229,0.01 0.106986,0.10932 c 0.116034,0.11856 0.136586,0.24667 0.06317,0.39372 -0.08812,0.1765 -0.141783,0.18317 -1.473702,0.18317 h -1.227737 z"
       id="path7984" />
    <path
       style="fill:#ffffff;stroke-width:0.0350395;fill-opacity:1"
       d="m 64.783073,77.118124 c -0.06983,-0.0326 -0.552931,-0.28357 -1.073561,-0.55774 -0.961866,-0.50652 -1.052377,-0.57149 -1.052377,-0.75543 0,-0.0982 0.09721,-0.25917 0.181361,-0.30027 0.194469,-0.095 0.314904,-0.0502 1.377475,0.51214 0.910016,0.4816 1.034641,0.55766 1.094101,0.66773 0.08776,0.16244 0.03349,0.33455 -0.135072,0.42835 -0.143376,0.0798 -0.229708,0.0809 -0.391927,0.005 z"
       id="path7982" />
    <path
       style="fill:#ffffff;stroke-width:0.0350395;fill-opacity:1"
       d="m 46.419733,77.114124 c -0.07781,-0.0444 -0.131884,-0.11165 -0.160866,-0.19993 -0.08099,-0.24671 -0.02854,-0.28864 1.123348,-0.89797 1.060738,-0.56112 1.181473,-0.60597 1.375805,-0.51105 0.08415,0.0411 0.181361,0.20204 0.181361,0.30027 0,0.18188 -0.08901,0.24436 -1.136777,0.79789 -0.568711,0.30045 -1.08614,0.55335 -1.149842,0.56201 -0.07656,0.0104 -0.15555,-0.007 -0.233029,-0.0512 z"
       id="path7980" />
    <path
       style="fill:#ffffff;stroke-width:0.0350395;fill-opacity:1"
       d="m 53.081229,79.791409 c -0.215975,-0.19711 -0.105157,-0.50731 0.204553,-0.57259 0.192125,-0.0405 4.832827,-0.0405 5.024952,0 0.08378,0.0177 0.183837,0.0702 0.233255,0.12249 0.118401,0.12527 0.09441,0.3595 -0.0483,0.47152 l -0.09735,0.0764 H 55.79339 53.188442 Z"
       id="path7972" />
    <path
       style="fill:#ffffff;stroke-width:0.0350395;fill-opacity:1"
       d="m 53.881807,81.359419 c -0.192845,-0.10251 -0.21365,-0.40478 -0.03808,-0.55327 l 0.09464,-0.08 h 1.844094 1.844093 l 0.108847,0.0836 c 0.132286,0.10158 0.170076,0.22113 0.116625,0.36894 -0.08086,0.22361 -0.01828,0.21706 -2.061647,0.21593 -1.184376,-6.5e-4 -1.867354,-0.0132 -1.908572,-0.0351 z"
       id="path7970" />
    <path
       id="path8226"
       style="fill:#ffffff;fill-opacity:1;stroke:#000000;stroke-width:0;stroke-linejoin:round"
       d="m 54.341033,66.110095 c -1.797794,0.428449 -3.068001,2.032763 -3.072681,3.8809 6.62e-4,0.01034 0.0013,0.02067 0.0021,0.03101 l -0.0043,0.648317 c 0.235715,0.0046 0.449925,-0.123693 0.683792,-0.580549 -8.99e-4,-0.01033 0.01893,-0.08844 0.01811,-0.09877 0.0029,-1.463062 0.96883,-2.749538 2.372982,-3.160531 0.0099,-0.01002 0.06138,-0.02447 0.07207,-0.03068 0.140336,-0.08157 0.210368,0.002 0.450774,-0.785195 z"
       sodipodi:nodetypes="cccccccscc" />
  </g>
</svg>
