<?xml version="1.0" encoding="UTF-8" standalone="no"?>
<!-- Created with Inkscape (http://www.inkscape.org/) -->

<svg
   width="35.377159mm"
   height="35.453751mm"
   viewBox="0 0 35.377159 35.453751"
   version="1.1"
   id="svg5"
   inkscape:version="1.1.2 (0a00cf5339, 2022-02-04)"
   sodipodi:docname="settings.svg"
   xmlns:inkscape="http://www.inkscape.org/namespaces/inkscape"
   xmlns:sodipodi="http://sodipodi.sourceforge.net/DTD/sodipodi-0.dtd"
   xmlns="http://www.w3.org/2000/svg"
   xmlns:svg="http://www.w3.org/2000/svg">
  <sodipodi:namedview
     id="namedview7"
     pagecolor="#505050"
     bordercolor="#eeeeee"
     borderopacity="1"
     inkscape:pageshadow="0"
     inkscape:pageopacity="0"
     inkscape:pagecheckerboard="0"
     inkscape:document-units="mm"
     showgrid="false"
     fit-margin-top="0"
     fit-margin-left="0"
     fit-margin-right="0"
     fit-margin-bottom="0"
     inkscape:zoom="6.6264874"
     inkscape:cx="47.310133"
     inkscape:cy="67.984737"
     inkscape:window-width="2256"
     inkscape:window-height="1423"
     inkscape:window-x="0"
     inkscape:window-y="0"
     inkscape:window-maximized="1"
     inkscape:current-layer="layer1" />
  <defs
     id="defs2" />
  <g
     inkscape:label="Calque 1"
     inkscape:groupmode="layer"
     id="layer1"
     transform="translate(-85.872843,-102.89272)">
    <path
       style="fill:#ffffff;fill-opacity:1;stroke-width:0.264583"
       d="m 96.227285,137.6441 c -0.83218,-0.37426 -1.58,-0.89136 -1.66181,-1.14913 -0.0818,-0.25777 -0.0289,-0.98839 0.11753,-1.62359 0.14646,-0.6352 0.2692,-1.64576 0.27276,-2.24569 0.006,-0.95668 -0.13919,-1.22504 -1.17825,-2.18281 -1.32526,-1.22158 -1.82229,-1.30648 -4.09998,-0.70036 -1.85933,0.4948 -2.35089,0.20538 -3.13608,-1.84646 -0.88957,-2.32457 -0.82167,-2.55572 1.12289,-3.82265 0.93387,-0.60844 1.76731,-1.28701 1.85208,-1.50792 0.20241,-0.52748 0.19852,-3.10986 -0.005,-3.64149 -0.0878,-0.22878 -0.86233,-0.84283 -1.72119,-1.36456 -2.18038,-1.32451 -2.27948,-1.59793 -1.39563,-3.85072 0.39995,-1.01939 0.9424,-1.96863 1.20546,-2.10941 0.32649,-0.17473 0.97403,-0.1275 2.04042,0.14883 0.85918,0.22263 1.81551,0.40479 2.12518,0.40479 0.67936,0 2.8854,-1.96888 3.081,-2.74977 0.0768,-0.30664 -0.0445,-1.3509 -0.2695,-2.32058 -0.22503,-0.96969 -0.33148,-1.96549 -0.23654,-2.2129 0.20289,-0.52871 3.13165,-1.97666 3.99881,-1.97696 0.44172,-1.5e-4 0.84888,0.39851 1.55359,1.52115 0.525235,0.83674 1.141825,1.67018 1.370195,1.85208 0.2406,0.19165 1.17386,0.33073 2.21931,0.33073 1.99798,0 1.98188,0.0105 3.45496,-2.24896 0.56646,-0.86885 1.07911,-1.35366 1.4936,-1.41248 0.86759,-0.12313 3.93962,1.22084 4.12489,1.80458 0.0826,0.26019 0.0303,0.99279 -0.11614,1.62799 -0.54139,2.34806 -0.39093,3.0972 0.87659,4.36473 1.29834,1.29833 1.78384,1.38818 4.12888,0.76413 1.85934,-0.49479 2.35089,-0.20538 3.13609,1.84646 0.88956,2.32458 0.82166,2.55572 -1.12289,3.82265 -0.93388,0.60844 -1.76731,1.28701 -1.85209,1.50793 -0.20241,0.52747 -0.19852,3.10985 0.005,3.64148 0.0878,0.22878 0.86232,0.84283 1.72119,1.36456 2.18038,1.32452 2.27948,1.59793 1.39563,3.85072 -0.39995,1.01939 -0.94241,1.96863 -1.20546,2.10941 -0.32649,0.17474 -0.97403,0.12751 -2.04042,-0.14883 -0.85918,-0.22263 -1.81551,-0.40479 -2.12518,-0.40479 -0.67935,0 -2.88539,1.96888 -3.081,2.74978 -0.0768,0.30663 0.0445,1.35089 0.2695,2.32058 0.22504,0.96968 0.33148,1.96549 0.23654,2.21289 -0.20288,0.52872 -3.13164,1.97666 -3.9988,1.97696 -0.44172,1.5e-4 -0.84888,-0.3985 -1.55359,-1.52114 -0.52525,-0.83675 -1.14183,-1.67019 -1.3702,-1.85209 -0.24061,-0.19165 -1.17387,-0.33073 -2.21932,-0.33073 -1.99811,0 -1.98268,-0.01 -3.45421,2.24896 -1.050795,1.61313 -1.749875,1.74603 -3.958815,0.75263 z m 10.450535,-10.21486 c 1.57755,-0.66306 3.4354,-2.67966 4.00276,-4.34477 0.88521,-2.59794 0.30687,-5.35616 -1.55798,-7.43032 -3.04033,-3.38158 -8.0825,-3.38158 -11.122835,0 -2.57255,2.8613 -2.61275,6.97361 -0.0961,9.83266 2.312665,2.62734 5.477665,3.32801 8.774175,1.94243 z"
       id="path1412" />
  </g>
</svg>
